<?xml version="1.0" encoding="UTF-8"?>
<svg xmlns="http://www.w3.org/2000/svg" version="1.1" viewBox="0 0 367.7 111.9">
  <defs>
    <style>
      .cls-1 {
        fill: #fc1859;
      }

      .cls-2 {
        fill: #5da7fb;
      }

      .cls-3 {
        fill: #995dff;
      }

      .cls-4 {
        fill: #333;
      }
    </style>
  </defs>
  <!-- Generator: Adobe Illustrator 28.6.0, SVG Export Plug-In . SVG Version: 1.2.0 Build 709)  -->
  <g>
    <g id="Layer_1">
      <path class="cls-4" d="M106.4,67.6h7.7v6.8h6.1v5.4h-6.1v13.1c0,2.3,1.4,3.9,3.7,3.9s2-.1,2.2-.2v4.6c-.4.1-2.5.8-5.3.8-6.3,0-8.3-4-8.3-9.1v-25.4"/>
      <path class="cls-4" d="M177.6,74.4h-7.7v26.9h7.8v-16.2c0-3.2,1.7-5.4,4.8-5.4s4.9,2.6,4.9,5.4v16.2h7.8v-18c0-5.6-3.1-9.7-9.6-9.7s-7.2,3.2-7.7,4.1h-.1v-3.3Z"/>
      <path class="cls-4" d="M167.3,73.6c-7,0-8.6,3.9-9.2,5.2h-.1v-4.4h-7v26.9h7.8v-13.4c0-5.8,3.9-8.2,8.5-8.2v-6.2Z"/>
      <path class="cls-4" d="M97.6,81.9l5-3.4c-.6-1.1-3.3-5-11-5s-10.6,3-10.6,8.2,3.5,7.2,7.4,8.4c1.2.4,2.3.7,3.4,1,2.1.7,3.7,1.2,3.7,2.9s-1.6,2.5-4.4,2.5-5.3-2.2-5.9-3.1l-5.2,2.9c.5,1.3,3.3,5.7,11.6,5.7s11.6-2.7,11.6-8.5-3.5-7.2-7.6-8.5c-1-.3-2.1-.6-3-.9-1.9-.6-3.9-1.1-3.9-2.9s1.2-2.1,3.5-2.1c3.6,0,4.8,2.1,5.3,2.8Z"/>
      <polygon class="cls-4" points="46.4 62.6 39.4 90.2 32.4 62.6 22.7 62.6 15.4 91 8.2 62.6 0 62.6 10 101.3 20.3 101.3 27.3 73.9 34.3 101.3 44 101.3 54 62.6 46.4 62.6"/>
      <path class="cls-4" d="M78.4,87.8c0-7.1-4.2-14.3-13.4-14.3s-13.4,6.2-13.4,14.3,5.1,14.3,13.7,14.3,10.5-4.5,11.1-6l-5.2-3c-.4.7-1.7,3.4-5.9,3.4s-5.8-2.6-6-6.3h19v-2.4ZM59.4,84.8c.3-3,2-5.7,5.7-5.7s5.3,2.5,5.6,5.7h-11.3Z"/>
      <path class="cls-4" d="M147.5,87.8c0-7.1-4.2-14.3-13.4-14.3s-13.4,6.2-13.4,14.3,5.1,14.3,13.7,14.3,10.5-4.5,11.1-6l-5.2-3c-.4.7-1.7,3.4-5.9,3.4s-5.8-2.6-6-6.3h19v-2.4ZM128.5,84.8c.3-3,2-5.7,5.7-5.7s5.3,2.5,5.6,5.7h-11.3Z"/>
      <path class="cls-4" d="M302.9,67.6h7.7v6.8h6.1v5.4h-6.1v13.1c0,2.3,1.4,3.9,3.7,3.9s2-.1,2.2-.2v4.6c-.4.1-2.5.8-5.3.8-6.3,0-8.3-4-8.3-9.1v-25.4"/>
      <path class="cls-4" d="M223.1,62.6h-13.2v38.7h13.2c12.3,0,19.6-5.9,19.6-19.3s-7.5-19.3-19.6-19.3ZM222.6,94.8h-4.4v-25.8h4.4c10,0,11.5,6.8,11.5,12.9s-1.5,12.9-11.5,12.9Z"/>
      <rect class="cls-4" x="347.7" y="62.6" width="8" height="38.7"/>
      <path class="cls-4" d="M363.3,95.4c-1.9,0-3.3,1.5-3.3,3.3s1.5,3.3,3.3,3.3,3.3-1.5,3.3-3.3-1.5-3.3-3.3-3.3ZM363.3,101.5c-1.5,0-2.8-1.2-2.8-2.8s1.2-2.7,2.8-2.7,2.7,1.2,2.7,2.7-1.2,2.8-2.7,2.8Z"/>
      <path class="cls-4" d="M364.6,99.5c0-.4-.2-.7-.6-.8h0c.4,0,.7-.3.7-.9s-.6-1.1-1.4-1.1h-1.2v3.9h.7v-1.6h.4c.5,0,.7.2.8.9,0,.2,0,.7,0,.7h.7s0-.7-.1-1.1ZM363.3,98.5h-.6v-1.2h.6c.5,0,.7.3.7.6s-.2.6-.7.6Z"/>
      <path class="cls-4" d="M277,74.4v2.9h-.1c-.5-.8-2.4-3.7-7.4-3.7-8.2,0-11.2,6.7-11.2,13.6s3,13.6,11.2,13.6,7-3,7.4-3.7h.1v3.1c0,3.7-2.6,6-5.7,6s-5.4-2.4-5.9-3.3c-.7.4-5.2,3-5.2,3,.6,1.1,2.9,6,11.3,6s13.2-5.7,13.2-13.7v-23.9h-7.7ZM271.8,94.9c-4.4,0-5.2-4.3-5.2-7.8s1.1-7.8,5.2-7.8,5.2,3.8,5.2,7.8-.9,7.8-5.2,7.8Z"/>
      <path class="cls-4" d="M329.6,73.6c-7.1,0-9.8,3.8-10.6,4.8l4.5,3.4c.7-1,2.5-2.7,5.5-2.7s5.6,1.7,5.6,4.6v.6h-3.4c-7.9,0-13,2.9-13,9.1s3.8,8.7,8.8,8.7,7.3-3,7.7-3.5h.1v2.7h7.5v-17.1c0-7.7-6.1-10.7-12.8-10.7ZM334.7,90.6c0,3.2-1.4,5.9-4.7,5.9s-3.9-1.4-3.9-3.6,1.5-3.9,5.6-3.9h3.1v1.6Z"/>
      <rect class="cls-4" x="246.8" y="74.4" width="8" height="26.9"/>
      <circle class="cls-4" cx="250.7" cy="66.3" r="4.3"/>
      <rect class="cls-4" x="289.9" y="74.4" width="8" height="26.9"/>
      <circle class="cls-4" cx="293.9" cy="66.3" r="4.3"/>
      <path class="cls-2" d="M341.1,0h10.2c2.4,0,4.4,2,4.4,4.4v10.2c0,3.9-4.7,5.9-7.5,3.1l-10.2-10.2C335.2,4.7,337.2,0,341.1,0Z"/>
      <path class="cls-1" d="M311.5,24.6c-4.3,0-7.7-3.5-7.8-7.8V4.4c0-2.4-2-4.4-4.4-4.4h-10.2c-3.9,0-5.9,4.7-3.1,7.5l34.8,34.8c2.8,2.8,7.5.8,7.5-3.1v-10.2c0-2.4-2-4.4-4.4-4.4h-12.4Z"/>
      <path class="cls-3" d="M338.9,24.6c-4.3,0-7.7-3.5-7.8-7.8V4.4c0-2.4-2-4.4-4.4-4.4h-10.2c-3.9,0-5.9,4.7-3.1,7.5l34.8,34.8c2.8,2.8,7.5.8,7.5-3.1v-10.2c0-2.4-2-4.4-4.4-4.4h-12.4Z"/>
      <g>
        <path class="cls-3" d="M363,40.1h-1.3v3.5h-.5v-3.5h-1.3v-.4h3.1v.4Z"/>
        <path class="cls-3" d="M363.6,39.7h.7l1.3,3.1h0l1.3-3.1h.7v3.9h-.5v-3.3h0l-1.4,3.3h-.3l-1.4-3.3h0v3.3h-.5v-3.9Z"/>
      </g>
    </g>
  </g>
</svg>